<svg xmlns="http://www.w3.org/2000/svg" x="0px" y="0px" width="18" height="18" viewBox="0 0 172 172" style=" fill:#000000;">
<g fill="none" fill-rule="nonzero" stroke="none" stroke-width="1" stroke-linecap="butt" stroke-linejoin="miter" stroke-miterlimit="10" stroke-dasharray="" stroke-dashoffset="0" font-family="none" font-weight="none" font-size="none" text-anchor="none" style="mix-blend-mode: normal"><path d="M0,172v-172h172v172z" fill="none"></path><g fill="#ffffff"><path d="M123.195,6.88c-0.86,0 -1.78719,0.38969 -2.4725,1.075l-89.44,89.44c-0.34937,0.34938 -0.645,0.60469 -0.645,1.29l-23.435,61.92c-0.68531,1.03469 -0.28219,2.40531 0.7525,3.44c0.68531,0.68531 1.33031,1.075 2.365,1.075c0.34938,0 0.71219,0.02688 1.3975,-0.3225l61.92,-23.435c0.34938,-0.34937 1.04813,-0.29562 1.3975,-0.645l5.4825,-5.4825l83.5275,-83.635c0.68531,-1.03469 1.075,-1.76031 1.075,-2.795c0,-1.03469 -0.38969,-1.67969 -1.075,-2.365l-38.485,-38.485c-0.68531,-0.68531 -1.505,-1.075 -2.365,-1.075zM38.1625,100.405c1.72,3.44 1.04813,7.22938 -0.3225,10.32c-0.68531,1.37063 0.02688,3.18469 1.3975,3.87c1.37063,1.03469 3.05031,0.68531 4.085,0c2.40531,-1.72 11.35469,-5.87219 15.48,-1.3975c4.12531,4.12531 0.7525,12.72531 -0.9675,15.48c-1.03469,1.03469 -1.03469,2.71438 0,4.085c1.03469,1.03469 2.39188,1.74688 3.7625,1.3975c4.47469,-1.37062 7.91469,-0.68531 10.32,0l-1.3975,1.3975l-38.27,14.2975l-9.89,-10.2125l14.405,-37.84z">
</path>
</g>
</g>
</svg>